<svg width="753" height="926" viewBox="0 0 753 926" fill="none" xmlns="http://www.w3.org/2000/svg">
<path fill-rule="evenodd" clip-rule="evenodd" d="M350.776 0.725124C295.294 3.76612 250.845 15.2771 204.369 38.6381C170.336 55.7461 138.228 78.9011 109.423 107.112C78.47 137.425 57.41 165.706 38.633 202.172C24.911 228.82 16.893 251.303 9.927 282.669L6.48502 298.169L5.336 359.669C4.704 393.494 3.53999 452.894 2.74899 491.669C1.95799 530.444 1.01601 580.619 0.656006 603.169L0 644.169L3.72 658.169C15.417 702.195 38.629 746.117 72.973 789.213C91.835 812.882 122.574 840.911 150.035 859.483C230.403 913.835 335.34 935.809 441.776 920.574C512.069 910.512 574.03 883.901 628.717 840.286C642.076 829.631 669.729 801.874 680.638 788.169C691.445 774.592 710.765 746.057 719.601 730.62C731.289 710.201 741.703 684.763 748.443 660.169L752.553 645.169L752.428 624.169C752.36 612.619 751.853 582.019 751.302 556.169C750.75 530.319 749.847 485.994 749.293 457.669C745.973 287.773 746.307 298.816 744.184 288.669C740.639 271.725 736.497 256.452 731.709 242.669C696.915 142.497 607.267 55.1811 502.276 19.2031C458.273 4.12509 405.709 -2.28688 350.776 0.725124ZM418.776 25.1231C454.778 29.5131 481.294 35.9621 508.276 46.8891C538.016 58.9331 562.944 73.5771 589.276 94.4731C601.819 104.426 627.793 130.519 638.248 143.669C667.712 180.727 689.564 225.147 700.757 270.733C706.47 293.999 707.101 301.011 707.727 348.169C708.042 371.819 708.985 435.494 709.823 489.669C710.662 543.844 711.444 607.294 711.562 630.669L711.776 673.169L707.032 687.669C691.509 735.119 655.227 784.523 608.492 821.846C555.361 864.277 491.466 890.278 420.776 898.236C400.452 900.523 351.579 900.532 331.776 898.252C252.751 889.15 184.072 858.613 127.066 807.228C91.322 775.01 59.644 729.476 47.797 693.287C39.492 667.918 40.036 675.518 41.206 601.307C41.779 564.931 42.726 503.894 43.309 465.669C43.892 427.444 44.756 373.894 45.229 346.669L46.089 297.169L49.076 283.169C67.156 198.421 115.229 126.009 184.776 78.7641C231.551 46.9891 280.443 30.1531 343.413 24.1371C361.466 22.4131 400.769 22.9271 418.776 25.1231ZM357.276 41.3091C297.894 44.7641 245.116 61.9821 198.276 93.1821C181.88 104.103 171.477 112.545 156.398 127.167C117.605 164.781 90.553 210.626 74.248 266.387L70.278 279.963L69.29 308.066C68.264 337.247 66.99 406.299 65.312 523.669C64.774 561.344 64.094 598.469 63.802 606.169C63.51 613.869 63.253 635.521 63.231 654.286L63.191 688.402L66.305 696.286C83.42 739.611 120.107 781.812 170.276 815.885C222.204 851.153 282.11 873.562 340.921 879.72C356.338 881.334 411.376 880.405 424.776 878.304C481.16 869.465 533.46 848.873 581.458 816.613C624.805 787.48 661.396 748.517 679.542 712.169C683.583 704.075 688.954 690.458 689.676 686.477C690.044 684.447 689.88 659.022 689.313 629.977C688.745 600.933 687.827 547.469 687.272 511.169C685.686 407.493 684.267 333.386 683.337 305.669L682.481 280.169L677.882 264.44C653.05 179.51 597.735 112.001 521.776 73.9211C490.923 58.4541 454.166 47.6421 417.276 43.1831C405.431 41.7511 369.152 40.6181 357.276 41.3091ZM388.474 52.6691H394.394L394.085 62.2481C393.813 70.6951 393.999 71.9911 395.664 73.2101C398.723 75.4481 401.058 73.4211 401.76 67.9161C403.467 54.5401 403.587 54.1921 406.63 53.8431L409.474 53.5171L408.766 62.9561C407.98 73.4391 408.877 76.6691 412.571 76.6691C415.711 76.6691 416.951 74.1181 418.394 64.6931C419.245 59.1331 420.146 56.2721 421.169 55.8801C423.66 54.9241 456.911 61.0891 460.188 63.1141C460.789 63.4861 459.594 68.3251 457.156 75.3941C453.904 84.8251 453.335 87.5021 454.183 89.3651C455.351 91.9281 457.978 92.3391 460.66 90.3781C461.631 89.6671 464.379 84.1551 466.766 78.1281C469.25 71.8551 471.742 67.0391 472.593 66.8651C473.411 66.6971 475.712 67.2421 477.707 68.0761L481.335 69.5921L479.686 73.3801C471.038 93.2461 470.002 96.9951 472.476 99.4691C473.136 100.129 474.703 100.669 475.959 100.669C478.554 100.669 480.867 96.6921 486.343 82.8181C488.155 78.2251 490.249 74.2331 490.995 73.9471C491.741 73.6601 494.472 74.2201 497.064 75.1901C503.222 77.4941 528.163 89.6771 528.785 90.6841C529.051 91.1131 524.784 97.9231 519.303 105.817C513.823 113.711 508.59 121.712 507.675 123.598C505.64 127.794 506.708 130.041 510.94 130.468C514.289 130.807 516.7 128.084 530.247 108.669C534.276 102.894 537.904 97.7931 538.309 97.3341C538.715 96.8751 540.931 97.6881 543.234 99.1421L547.421 101.786L543.992 105.977C536.867 114.687 530.426 123.622 529.76 125.718C528.798 128.751 531.346 131.119 534.674 130.284C536.237 129.892 540.813 125.542 546.382 119.154C551.41 113.387 556.031 108.677 556.65 108.687C558.494 108.716 579.026 125.69 589.732 136.036L599.687 145.657L595.232 148.547C589.111 152.517 579.254 160.735 577.637 163.215C576.508 164.946 576.54 165.601 577.846 167.465C578.701 168.686 580.45 169.669 581.767 169.669C584.926 169.669 602.123 158.098 603.52 155.033L604.618 152.623L607.519 155.396C612.914 160.553 629.681 183.825 636.668 195.854C639.222 200.251 639.279 200.597 637.583 201.502C636.589 202.033 619.396 210.855 599.376 221.107C579.356 231.359 561.694 240.659 560.128 241.774C554.974 245.445 555.467 251.669 560.913 251.669C562.229 251.669 581.595 242.669 603.95 231.669C626.305 220.669 644.743 211.669 644.923 211.669C645.885 211.669 652.298 226.028 651.601 226.624C651.147 227.012 643.126 230.415 633.776 234.187C611.087 243.339 593.347 251.295 591.105 253.324C588.601 255.59 588.809 258.499 591.564 259.754C594.46 261.074 604.265 258.003 634.703 246.242C646.763 241.582 656.935 237.958 657.308 238.189C658.295 238.799 663.601 253.677 663.034 254.244C662.771 254.508 645.505 259.006 624.665 264.239C573.223 277.159 557.093 281.604 555.026 283.432C552.677 285.508 552.805 289.346 555.265 290.663C557.804 292.022 568.523 289.683 642.756 271.578C655.945 268.361 667.033 266.053 667.395 266.449C667.758 266.845 669.224 271.284 670.653 276.314C672.809 283.901 673.296 287.903 673.514 299.814L673.776 314.169L668.276 314.386C658.631 314.765 623.389 316.662 604.776 317.804C594.876 318.411 586.214 319.359 585.526 319.911C583.464 321.566 584.073 325.49 586.654 327.181C588.769 328.567 592.285 328.618 618.404 327.648C634.559 327.047 653.851 326.469 661.276 326.362L674.776 326.169V331.669V337.169L635.276 337.669C613.551 337.944 595.214 338.533 594.526 338.978C592.606 340.22 593.041 344.146 595.327 346.215C597.221 347.929 600.293 348.123 635.199 348.732C656 349.095 673.527 349.706 674.148 350.09C674.797 350.491 675.276 353.524 675.276 357.228V363.669H662.71C649.053 363.669 646.276 364.431 646.276 368.181C646.276 372.044 649.756 373.465 662.276 374.714C668.601 375.345 674.114 376.07 674.526 376.324C675.733 377.069 675.448 418.669 674.236 418.669C673.664 418.669 657.504 414.169 638.325 408.669C619.147 403.169 602.438 398.669 601.194 398.669C596.053 398.669 593.263 405.544 597.026 408.937C597.989 409.805 613.851 414.847 632.276 420.142C676.396 432.82 675.175 432.403 675.806 435C676.096 436.193 676.208 453.677 676.055 473.854L675.776 510.539L634.031 485.104C611.071 471.115 591.641 459.669 590.852 459.669C586.783 459.669 584.879 466.23 587.757 470.338C588.571 471.5 608.393 484.03 631.806 498.181C655.219 512.333 675.028 524.564 675.826 525.362C677.762 527.298 677.913 540.127 675.991 539.39C675.284 539.118 664.821 532.178 652.741 523.967C605.033 491.541 590.045 481.669 588.522 481.669C586.098 481.669 583.276 484.702 583.276 487.308C583.276 488.589 584.513 490.974 586.026 492.607C587.539 494.24 605.876 507.075 626.776 521.131C647.676 535.186 667.564 548.678 670.971 551.113L677.166 555.541L677.471 569.355C677.639 576.953 677.489 583.546 677.139 584.006C676.789 584.466 667.114 577.348 655.639 568.188C633.156 550.24 627.168 545.931 623.391 544.983C620.313 544.211 617.872 545.721 617.437 548.668C616.976 551.789 624.217 558.562 652.886 581.827C665.532 592.089 676.429 601.148 677.102 601.959C677.984 603.023 678.249 608.071 678.051 620.072L677.776 636.71L665.776 626.047C633.142 597.049 604.876 572.453 603.64 571.978C601.036 570.979 597.276 574.462 597.276 577.872C597.276 581.643 594.656 579.09 642.37 621.805L677.965 653.671L678.592 668.188C679.322 685.103 679.091 686.792 674.732 696.366C671.127 704.283 660.822 722.213 659.356 723.12C658.847 723.434 646.523 709.624 631.97 692.43C593.667 647.177 572.381 622.796 570.121 621.586C567.66 620.269 563.276 622.788 563.276 625.519C563.276 627.493 585.718 655.274 625.598 702.669C639.713 719.444 651.265 733.672 651.269 734.286C651.279 735.794 640.557 749.169 639.338 749.169C638.807 749.169 630.861 738.819 621.68 726.169C597.066 692.251 595.962 691.099 591.241 694.406C586.935 697.422 588.416 700.082 615.452 737.913C623.605 749.322 630.276 758.987 630.276 759.391C630.276 760.531 614.952 775.669 613.799 775.668C613.237 775.667 611.456 773.305 609.842 770.418C603.462 759.006 575.287 710.957 562.628 689.902C539.881 652.066 539.111 651.033 535.39 653.361C534.502 653.916 533.63 655.596 533.453 657.093C533.103 660.036 533.241 660.29 577.678 738.135C591.482 762.316 602.912 782.848 603.079 783.761C603.276 784.839 600.47 787.694 595.063 791.916C584.608 800.08 563.301 814.669 561.833 814.669C561.226 814.669 556.915 806.996 552.252 797.618C547.59 788.24 542.547 779.389 541.045 777.949C538.661 775.664 537.993 775.477 535.795 776.478C533.924 777.331 533.276 778.392 533.276 780.603C533.276 783.776 538.124 795.434 545.802 810.72C548.959 817.007 550.217 820.538 549.631 821.467C548.192 823.749 531.988 831.675 530.792 830.682C530.204 830.195 529.108 828.08 528.355 825.982C525.939 819.248 501.168 759.379 499.069 755.202C497.955 752.984 496.351 750.382 495.505 749.419C493.25 746.854 489.452 747.189 488.14 750.067C486.697 753.236 487.362 755.178 504.918 799.038C512.815 818.767 519.276 835.535 519.276 836.301C519.276 837.763 508.617 842.998 507.299 842.183C506.88 841.924 505.087 837.693 503.316 832.78C499.753 822.898 496.311 818.532 493.481 820.303C490.852 821.949 490.91 825.894 493.708 835.62C495.121 840.529 496.276 845.148 496.276 845.885C496.276 847.381 483.671 852.061 467.276 856.651C457.617 859.356 456.676 859.459 455.526 857.939C454.839 857.03 454.276 855.692 454.276 854.965C454.276 854.239 450.495 838.237 445.873 819.406C441.251 800.576 436.924 782.39 436.257 778.994C434.67 770.909 432.093 766.669 428.766 766.669C425.482 766.669 424.283 769.741 425.253 775.669C426.026 780.395 429.987 798.503 438.814 837.669C441.727 850.594 443.754 861.54 443.319 861.994C442.397 862.954 428.521 865.247 427.828 864.554C427.571 864.297 426.212 856.906 424.808 848.128C420.157 819.058 418.292 812.669 414.453 812.669C409.386 812.669 409.113 818.887 412.964 846.491C415.145 862.121 415.411 865.968 414.357 866.619C412.141 867.988 388.075 868.931 385.026 867.768L382.276 866.719V819.816C382.276 768.742 382.466 770.419 376.684 770.419C370.66 770.419 370.803 769.259 370.498 820.603L370.219 867.466L367.514 868.145C364.213 868.974 339.996 867.732 338.236 866.644C337.233 866.024 337.412 862.813 339.107 851.016C342.802 825.305 343.412 818.061 342.119 815.224C340.858 812.457 337.278 811.753 335.488 813.919C333.909 815.83 331.699 825.539 328.831 843.169C325.138 865.867 325.474 864.669 322.805 864.669C319.188 864.669 300.735 860.849 290.504 857.982C283.142 855.919 281.326 855.052 281.69 853.776C283.861 846.153 290.276 818.373 290.276 816.591C290.276 813.847 287.593 810.669 285.276 810.669C281.563 810.669 280.063 814.262 272.541 841.169C269.936 850.49 269.585 851.146 267.376 850.833C260.437 849.85 210.861 827.673 203.945 822.458C202.215 821.154 202.566 820.118 210.323 803.63C218.74 785.739 220.509 779.86 218.284 777.179C214.464 772.576 210.862 776.73 200.056 798.206C195.502 807.257 191.434 814.663 191.017 814.665C190.599 814.667 186.442 812.207 181.778 809.199L173.299 803.729L176.679 796.449C178.538 792.445 185.226 778.594 191.542 765.669C206.182 735.71 209.276 728.565 209.276 724.72C209.276 719.873 206.55 719.587 202.707 724.033C200.941 726.076 191.779 743.014 182.347 761.674C172.915 780.333 164.834 795.824 164.389 796.099C162.712 797.136 122.276 762.267 122.276 759.784C122.276 759.38 130.586 747.377 140.743 733.11C150.9 718.842 160.194 705.337 161.397 703.098C165.031 696.329 162.363 691.497 156.411 694.071C154.091 695.075 144.811 707.056 124.381 735.419C118.735 743.257 113.815 749.653 113.446 749.633C112.657 749.592 101.987 736.301 101.45 734.69C101.248 734.084 104.608 729.443 108.916 724.378C125.928 704.381 172.527 648.23 185.594 631.983C197.901 616.681 199.378 614.44 199.094 611.494C198.67 607.086 196.349 606.788 192.024 610.586C187.744 614.343 161.351 644.627 123.577 689.122C107.724 707.796 94.344 723.096 93.844 723.122C92.645 723.184 85.557 711.539 79.569 699.669L74.776 690.169L74.467 672.146L74.157 654.123L90.467 639.646C127.519 606.758 167.493 570.453 178.528 559.669C187.497 550.904 190.293 547.562 190.286 545.619C190.275 542.876 188.644 540.669 186.628 540.669C184.495 540.669 151.592 568.786 94.276 619.589L74.776 636.873L74.527 630.021C74.39 626.252 74.615 607.869 75.027 589.169L75.776 555.169L98.276 539.927C187.659 479.376 195.764 473.558 196.868 469.16C197.582 466.316 195.896 463.669 193.372 463.669C189.971 463.669 155.348 486.164 85.538 533.731C80.457 537.193 76.107 539.833 75.872 539.597C75.276 539 77.081 433.531 77.697 432.914C77.973 432.638 97.27 426.9 120.579 420.162C172.978 405.015 182.179 402.052 185.026 399.409C189.026 395.696 187.438 390.669 182.265 390.669C178.522 390.669 161.521 395.151 117.74 407.679C96.618 413.724 78.872 418.669 78.306 418.669C77.103 418.669 76.828 377.063 78.026 376.324C78.439 376.07 83.951 375.345 90.276 374.714C104.896 373.255 109.962 370.294 105.768 365.66C104.234 363.965 102.388 363.691 90.896 363.447L77.776 363.169L77.472 357.273C77.304 354.031 77.599 350.946 78.127 350.418C78.685 349.86 98.291 349.08 124.931 348.556C150.146 348.06 172.755 347.315 175.173 346.901C180.195 346.042 182.386 343.656 180.667 340.919C179.128 338.468 168.513 337.929 118.939 337.786L78.101 337.669L78.439 316.751C78.624 305.246 79.001 295.609 79.276 295.335C79.551 295.062 87.651 296.166 97.276 297.79C121.588 301.892 140.762 304.669 144.774 304.669C147.11 304.669 148.631 304 149.672 302.514C151.919 299.306 150.094 296.958 144.002 295.22C138.84 293.747 95.239 285.387 86.014 284.102C83.394 283.737 81.047 283.108 80.798 282.705C80.353 281.984 85.033 265.669 85.685 265.669C85.869 265.669 100.59 269.24 118.398 273.605C158.143 283.347 189.374 290.583 195.012 291.356C199.901 292.027 202.276 290.626 202.276 287.072C202.276 285.509 201.354 284.256 199.526 283.336C196.256 281.689 178.993 277.073 127.818 264.163C106.941 258.896 89.728 254.454 89.565 254.292C88.741 253.467 98.663 228.838 104.454 217.334C106.157 213.95 107.892 211.703 108.583 211.985C109.239 212.253 128.851 221.806 152.166 233.214C188.946 251.212 194.901 253.836 197.166 253.044C201.024 251.696 201.186 247.601 197.501 244.553C195.916 243.242 176.55 232.944 154.464 221.669C132.379 210.394 114.302 200.594 114.292 199.89C114.254 196.87 132.491 170.101 142.604 158.336C147.356 152.807 147.676 152.613 148.741 154.603C150.046 157.042 161.445 165.572 166.785 168.106C172.63 170.88 177.309 168.498 175.737 163.547C175.102 161.547 155.942 146.669 154.001 146.669C153.347 146.669 157.521 141.944 163.276 136.169C169.031 130.394 174.135 125.669 174.617 125.669C175.099 125.669 184.541 134.497 195.599 145.286C206.656 156.076 216.711 165.563 217.941 166.369C222.606 169.426 226.941 164.859 223.851 160.144C222.977 158.809 213.489 148.819 202.769 137.945C192.048 127.07 183.276 118.126 183.276 118.068C183.276 117.345 195.466 108.68 196.442 108.709C197.175 108.731 199.508 110.946 201.626 113.63C208.49 122.331 217.019 130.669 219.056 130.669C221.798 130.669 223.584 128.213 222.75 125.588C222.37 124.39 218.508 118.738 214.168 113.026C209.827 107.315 206.276 102.294 206.276 101.869C206.276 99.0411 255.357 73.6691 260.827 73.6691C261.491 73.6691 262.613 75.1311 263.322 76.9191C264.031 78.7071 267.046 85.2321 270.022 91.4201C274.423 100.571 275.913 102.791 278.01 103.317C280.612 103.97 283.276 101.839 283.276 99.1031C283.276 98.4521 280.801 91.9571 277.776 84.6691C274.751 77.3811 272.276 70.8661 272.276 70.1901C272.276 67.9331 309.598 57.5911 311.366 59.3591C311.833 59.8261 313.531 64.6361 315.14 70.0471C318.449 81.1781 319.887 83.2341 323.691 82.2801C325.901 81.7251 326.276 81.0821 326.276 77.8491C326.276 75.7681 325.2 70.3661 323.886 65.8441C321.596 57.9691 321.572 57.5811 323.32 56.6461C324.323 56.1081 326.879 55.6691 328.999 55.6691H332.853L334.526 65.3451C336.432 76.3681 337.834 78.5671 342.01 77.0831C345.143 75.9701 345.264 74.9381 343.851 61.4191L343.041 53.6691H346.071C349.375 53.6691 349.241 53.3091 350.83 66.4291C351.557 72.4341 354.21 75.3101 357.433 73.5851C359.111 72.6871 359.221 71.6831 358.631 62.6771L357.981 52.7581L365.879 52.3661C370.222 52.1511 375.751 52.1311 378.166 52.3221C380.58 52.5131 385.219 52.6691 388.474 52.6691ZM242.026 83.7491C238.154 86.0041 239.646 90.0761 250.499 106.874C257.405 117.563 260.085 119.902 262.824 117.629C265.498 115.41 264.303 111.248 257.579 99.3621C248.482 83.2831 246.406 81.1981 242.026 83.7491ZM361.276 83.2721C359.901 83.5161 354.726 84.4181 349.776 85.2781C322.66 89.9871 295.135 103.256 271.708 122.914C232.091 156.156 209.368 211.545 214.213 263.063C220.098 325.659 258.001 378.153 314.759 402.319C320.25 404.656 324.886 407 325.062 407.526C325.624 409.214 319.869 420.667 308.411 440.659C295.202 463.706 290.565 475.02 285.119 497.491C280.278 517.47 280.383 517.11 279.624 516.35C279.291 516.018 278.119 512.241 277.019 507.957C275.292 501.234 274.917 495.316 274.281 464.669C273.561 429.948 273.474 428.829 270.317 413.669C268.483 404.858 265.588 394.528 263.61 389.732C256.858 373.359 246.737 361.031 236.044 356.153C230.477 353.614 230.196 353.292 226.323 345.027C221.116 333.917 216.137 327.258 210.618 324.024C205.549 321.053 202.685 321.588 199.76 326.053C195.376 332.744 193.561 363.006 196.602 378.692C198.306 387.478 203.372 403.378 207.267 412.169C209.263 416.673 209.474 418.715 209.389 432.751C209.271 452.306 205.829 482.909 199.781 518.169C195.992 540.257 195.049 550.092 195.192 566.035L195.324 580.901L202.914 600.535C219.485 643.4 225.038 665.845 227.4 699.504C228.017 708.294 228.99 715.149 229.86 716.832C233.154 723.202 254.481 738.27 272.776 747.153C312.124 766.259 355.714 770.464 391.513 758.609C409.863 752.532 412.919 749.693 417.276 734.669C418.472 730.544 420.508 725.338 421.799 723.101C424.649 718.163 435.704 707.585 445.881 700.059C454.544 693.652 486.282 673.041 500.464 664.611C521.74 651.965 533.059 641.097 574.509 593.516C587.45 578.66 593.601 567.921 594.838 558.022C595.654 551.492 594.732 547.607 588.143 529.809C581.901 512.95 575.349 489.186 575.835 485.169C576.034 483.519 576.703 477.669 577.322 472.169C577.94 466.669 579.756 454.294 581.356 444.669C582.956 435.044 584.268 425.219 584.271 422.836C584.274 420.373 585.559 415.299 587.247 411.081C591.625 400.149 592.653 392.458 591.976 375.688C591.359 360.371 589.207 347.834 584.814 333.959C581.562 323.689 578.419 319.669 573.639 319.669C566.846 319.669 563.058 326.997 561.047 344.031L559.882 353.893L556.106 356.276C548.257 361.231 540.424 373.539 533.747 391.408C531.331 397.877 529.344 402.719 529.332 402.169C529.32 401.619 529.976 397.119 530.79 392.169C531.603 387.219 532.273 381.369 532.278 379.169C532.284 376.969 533.652 370.444 535.319 364.669C540.072 348.205 541.569 335.027 540.995 314.688C540.711 304.631 540.908 296.137 541.46 294.688C541.987 293.303 543.259 287.894 544.286 282.669C550.757 249.75 547.532 215.775 535.093 185.833C526.068 164.108 516.125 149.444 498.318 131.595C478.335 111.565 459.437 99.6871 434.022 91.1821C415.255 84.9021 406.122 83.4361 383.776 83.1161C372.776 82.9591 362.651 83.0291 361.276 83.2721ZM412.046 97.5641C443.574 104.535 467.073 117.39 489.845 140.123C512.216 162.455 524.649 184.822 532.118 216.169C534.564 226.436 534.732 228.669 534.642 249.669C534.575 264.953 534.1 274.093 533.16 278.169C531.795 284.085 531.724 284.173 528.054 284.478C525.118 284.721 523.568 285.672 520.719 288.978C516.484 293.89 509.468 308.109 506.182 318.438C503.985 325.345 503.614 325.852 498.727 328.61C495.898 330.206 491.827 333.515 489.68 335.964C484.439 341.94 476.798 354.998 472.051 366.09C466.87 378.198 467.129 377.789 462.679 380.874C453.575 387.185 422.555 400.363 420.917 398.615C420.407 398.072 426.778 373.272 431.307 358.169C434.551 347.352 435.374 339.537 434.363 329.169C434.149 326.969 434.716 321.173 435.625 316.288C438.41 301.307 437.453 281.463 433.465 271.52C430.868 265.047 423.013 263.831 414.676 268.613C406.418 273.349 392.582 287.968 386.276 298.619C383.139 303.918 377.188 311.776 372.427 316.907C359.12 331.247 351.368 344.315 342.609 367.169C340.712 372.119 338.846 376.486 338.463 376.874C337.367 377.983 320.805 372.037 311.355 367.143C276.7 349.194 252.079 314.072 245.636 273.393C243.668 260.966 244.256 235.146 246.769 223.669C250.647 205.961 259.413 185.6 269.514 170.843C276.807 160.187 293.811 142.946 304.423 135.449C328.356 118.539 350.413 111.207 385.776 108.407C387.67 108.257 388.776 107.616 388.776 106.669C388.776 104.363 362.497 104.667 351.776 107.097C264.189 126.944 213.245 224.105 246.768 307.371C261.111 342.999 290.678 371.473 326.526 384.181C330.789 385.692 334.276 387.265 334.276 387.677C334.276 389.915 331.038 395.669 329.779 395.669C327.04 395.669 310.203 387.872 300.964 382.326C258.092 356.588 230.093 310.979 226.321 260.738C220.962 189.338 265.224 123.61 333.312 101.86C341.557 99.2261 351.729 96.9601 362.776 95.2951C364.426 95.0461 374.101 94.9941 384.276 95.1791C398.258 95.4321 405.04 96.0151 412.046 97.5641ZM457.014 124.919C455.373 126.166 450.276 140.355 450.276 143.674C450.276 146.317 448.557 147.164 439.276 149.099C429.307 151.177 427.276 152.099 427.276 154.549C427.276 157.486 430.242 159.318 439.583 162.152C449.541 165.174 449.239 164.804 451.827 177.169C453.815 186.667 454.742 188.669 457.156 188.669C460.169 188.669 462.19 185.408 465.56 175.11L468.776 165.284L477.902 162.227C486.777 159.253 490.276 157.36 490.276 155.532C490.276 153.837 484.287 151.006 476.711 149.12C472.471 148.064 468.765 146.551 468.33 145.698C467.901 144.857 466.781 140.972 465.841 137.065C464.166 130.1 461.113 123.669 459.482 123.669C459.029 123.669 457.918 124.232 457.014 124.919ZM222.476 131.869C220.076 134.269 221.2 138.116 225.854 143.436C230.741 149.023 233.78 150.022 236.777 147.025C239.587 144.215 237.221 139.156 229.945 132.419C227.759 130.395 224.211 130.134 222.476 131.869ZM521.617 133.919C519.938 135.707 518.265 138.02 517.898 139.06C517.042 141.486 519.742 145.669 522.164 145.669C524.683 145.669 528.991 142.12 530.861 138.505C532.259 135.8 532.255 135.286 530.818 133.093C528.615 129.731 525.267 130.031 521.617 133.919ZM178.765 172.046C177.547 173.904 177.446 174.942 178.301 176.796C179.181 178.704 198.149 193.653 203.912 196.98C207.639 199.132 212.313 194.241 210.446 190.143C209.876 188.892 204.159 183.774 197.741 178.769C184.97 168.809 181.655 167.635 178.765 172.046ZM556.42 177.652C546.023 185.872 544.125 188.65 546.226 192.576C548.223 196.306 551.7 195.084 563.273 186.582C575.072 177.914 576.972 175.201 573.74 171.629C570.454 167.998 567.2 169.13 556.42 177.652ZM568.884 261.658C563.993 263.835 559.155 266.373 558.134 267.298C555.852 269.363 555.728 272.969 557.878 274.754C559.236 275.88 561.008 275.567 569.461 272.706C580.717 268.895 584.276 266.6 584.276 263.153C584.276 260.901 581.024 257.651 578.803 257.684C578.238 257.693 573.774 259.481 568.884 261.658ZM157.931 299.498C155.748 301.909 155.841 303.965 158.228 306.126C160.157 307.871 176.435 310.325 197.957 312.114C205.48 312.74 206.224 312.634 207.204 310.804C209.865 305.831 207.615 304.879 183.276 300.686C162.832 297.164 160.157 297.038 157.931 299.498ZM393.232 306.755C389.302 314.458 386.402 323.295 384.83 332.358C383.508 339.977 383.478 342.013 384.624 346.43C385.361 349.27 385.601 351.37 385.157 351.095C383.751 350.227 382.287 343.37 382.282 337.629C382.273 328.853 386.559 315.083 392.36 305.251C395.291 300.283 395.952 301.423 393.232 306.755ZM27.089 321.944C27.828 322.834 27.879 335.606 27.261 364.194C26.773 386.73 25.86 441.169 25.232 485.169C23.405 613.217 22.948 631.398 21.519 632.826C20.509 633.836 19.967 633.789 18.768 632.589C17.463 631.285 17.397 626.919 18.243 598.132C18.776 580.002 19.694 539.069 20.283 507.169C20.872 475.269 21.782 430.044 22.306 406.669C22.831 383.294 23.263 355.093 23.268 344.001C23.277 321.042 23.806 317.988 27.089 321.944ZM514.15 329.681C509.227 350.761 508.495 365.729 512.086 371.888C514.258 375.615 512.631 376.779 509.818 373.51C505.482 368.473 505.684 354.561 510.364 335.837C512.469 327.416 515.084 320.143 515.763 320.822C515.966 321.026 515.24 325.012 514.15 329.681ZM729.002 330.249C729.127 334.605 729.921 374.619 730.767 419.169C731.613 463.719 732.729 520.644 733.246 545.669C735.055 633.125 735.06 632.169 732.804 632.169C729.851 632.169 729.603 628.929 728.926 581.669C728.591 558.294 727.568 490.95 726.653 432.015C725.737 373.08 725.278 324.105 725.633 323.182C725.987 322.258 726.839 321.689 727.527 321.916C728.359 322.192 728.852 324.973 729.002 330.249ZM372.44 337.615C371.931 346.626 374.327 353.539 379.664 358.459C386.744 364.985 391.572 366.999 398.753 366.423C405.541 365.878 411.259 363.356 416.228 358.714C418.055 357.007 419.697 355.757 419.877 355.936C420.056 356.116 419.527 358.491 418.701 361.216C417.875 363.94 415.22 374.044 412.8 383.669C410.381 393.294 402.935 417.594 396.255 437.669C389.574 457.744 383.052 477.769 381.76 482.169C380.469 486.569 375.755 498.692 371.284 509.11C366.814 519.527 360.954 534.602 358.263 542.61C354.066 555.093 353.144 559.308 351.793 572.169C350.926 580.419 349.386 590.664 348.371 594.937C347.266 599.586 346.903 602.938 347.467 603.287C347.985 603.607 348.492 603.712 348.593 603.519C348.693 603.327 350.997 598.669 353.712 593.169C358.034 584.411 359.708 582.175 367.181 575.169C391.5 552.371 405.923 535.788 421.337 512.903C432.087 496.942 436.523 488.281 447.636 461.555C452.299 450.343 459.562 433.744 463.776 424.669C467.991 415.594 472.562 404.119 473.934 399.169C478.518 382.633 479.586 379.214 482.527 371.669C487.715 358.354 501.326 335.961 498.937 344.669C496.147 354.839 497.455 370.701 501.584 376.765C505.513 382.537 508.69 384.171 515.932 384.149L522.434 384.128L521.775 388.526C520.768 395.242 520.216 396.182 518.868 393.477C518.235 392.207 516.506 390.588 515.026 389.878C512.774 388.799 511.859 388.833 509.426 390.091C504.706 392.532 503.833 397.505 507.45 401.355C509.944 404.009 513.032 404.32 515.835 402.201C520.461 398.702 520.439 398.9 512.74 430.169C509.761 442.269 506.374 457.569 505.214 464.169C498.503 502.353 492.044 517.702 465.746 557.964C446.195 587.897 443.15 592.794 435.514 606.585C425.513 624.648 422.114 629.02 410.552 638.691C405.175 643.189 400.378 647.568 399.891 648.421C397.374 652.836 414.51 644.44 423.203 636.999C429.303 631.778 436.899 621.251 451.332 598.016C458.113 587.1 468.447 570.969 474.297 562.169C492.834 534.28 502.472 515.875 507.342 499.065C509.44 491.822 512.98 483.384 517.902 473.896C525.876 458.523 528.988 450.275 532.136 436.169C533.241 431.219 535.352 421.769 536.827 415.169C541.282 395.24 549.488 376.465 556.681 369.745L559.276 367.32V371.96C559.276 378.742 562.111 397.949 563.831 402.825C565.679 408.064 569.724 413.46 572.879 414.898C576.134 416.381 575.893 419.094 572.276 421.669C568.619 424.273 568.208 428.903 571.337 432.234C573.338 434.364 573.355 434.661 571.897 442.345C570.101 451.81 567.621 471.083 566.772 482.169C565.462 499.271 562.086 527.554 560.168 537.491C557.78 549.865 555.15 557.326 550.716 564.299C546.71 570.6 519.024 600.234 515.402 602.097C511.028 604.347 498.461 607.77 491.929 608.49L485.776 609.169L485.706 615.169C485.558 627.839 482.42 640.691 478.415 645.027C475.34 648.358 464.567 655.752 455.276 660.908C449.119 664.325 444.276 668.037 444.276 669.339C444.276 671.325 458.26 666.1 470.776 659.438C476.984 656.133 490.385 646.553 494.271 642.641C496.199 640.701 502.051 634.195 507.276 628.183C512.501 622.172 525.132 608.459 535.344 597.711C555.097 576.922 558.846 572.166 563.212 562.356C567.088 553.646 568.968 546.07 570.828 531.669C572.354 519.857 572.806 517.766 573.62 518.752C573.81 518.982 576.59 525.919 579.799 534.169C589.759 559.772 589.245 561.415 560.866 594.714C555.966 600.464 542.916 614.176 531.866 625.185C510.663 646.309 511.891 645.368 480.776 664.345C465.634 673.581 430.204 697.033 423.87 702.013C421.722 703.702 416.889 709.229 413.131 714.295C405.361 724.77 403.323 726.591 394.848 730.632C375.621 739.801 341.658 742.033 317.067 735.743C299.589 731.273 276.321 720.916 260.276 710.464C241.347 698.134 238.068 693.242 235.23 673.096C232.05 650.526 225.037 626.475 213.965 600.169C206.923 583.435 204.273 574.713 204.288 568.314C204.302 562.799 207.606 532.754 209.198 523.669C209.728 520.644 210.832 514.344 211.652 509.669C214.058 495.941 220.276 447.899 220.276 443.038C220.276 440.611 220.94 439.28 222.737 438.103C224.091 437.216 225.454 435.682 225.768 434.694C226.579 432.138 224.47 428.078 221.666 426.801C217.972 425.118 218.832 423.669 223.526 423.665C229.115 423.66 233.634 420.799 236.486 415.458C238.573 411.549 238.764 409.974 238.637 397.669C238.544 388.537 237.879 381.338 236.582 375.419C234.388 365.409 235.112 364.441 240.34 370.395C249.264 380.559 255.975 394.57 259.192 409.755C263.554 430.344 263.662 431.685 263.784 466.669C263.919 505.123 263.112 499.165 272.652 532.162C275.195 540.959 277.276 550.085 277.276 552.444C277.276 557.154 279.354 559.019 281.837 556.537C282.609 555.764 285.07 546.59 287.304 536.15C298.439 484.119 303.708 468.564 318.855 442.998C329.509 425.016 341.313 398.912 352.239 369.169C357.437 355.019 369.842 331.674 372.168 331.667C372.502 331.666 372.625 334.343 372.44 337.615ZM159.276 357.697C155.701 358.123 144.676 359.217 134.776 360.128C124.876 361.039 115.533 362.265 114.013 362.853C110.405 364.249 109.403 368.042 111.907 370.829C113.662 372.782 114.445 372.867 124.776 372.233C130.826 371.861 145.625 370.696 157.663 369.644C174.874 368.139 179.949 367.37 181.413 366.045C183.519 364.139 183.881 359.674 182.076 357.869C180.737 356.53 169.757 356.447 159.276 357.697ZM573.86 397.515C576.52 405.439 576.478 407.893 573.771 402.659C569.994 395.355 569.106 390.233 568.746 373.669L568.387 357.169L569.88 373.635C570.943 385.367 572.087 392.233 573.86 397.515ZM599.354 360.591C596.81 363.135 596.74 364.786 599.054 367.644C601.022 370.074 606.107 370.89 627.346 372.182C637.451 372.797 639.129 372.674 640.596 371.206C642.675 369.128 642.773 365.326 640.79 363.681C639.411 362.536 627.485 360.85 609.104 359.201C602.154 358.578 601.236 358.709 599.354 360.591ZM209.869 386.037C211.743 393.114 214.596 401.656 216.21 405.019C219.746 412.386 219.489 413.595 215.745 407.206C211.254 399.544 204.176 374.525 204.418 367.169C204.499 364.699 204.688 364.964 205.489 368.669C206.024 371.144 207.995 378.96 209.869 386.037ZM380.051 368.228C374.603 371.184 373.493 378.121 377.911 381.596C381.345 384.298 385.543 384.229 388.665 381.419C392.958 377.557 392.261 370.747 387.311 368.187C383.767 366.355 383.5 366.356 380.051 368.228ZM461.946 398.567C461.628 400.161 457.338 410.173 452.414 420.817C447.49 431.461 440.216 448.044 436.25 457.669C426.467 481.407 422.19 489.643 410.434 507.382C397.58 526.776 394.995 529.581 386.255 533.609C378.678 537.101 371.276 538.697 371.276 536.838C371.276 535.272 374.252 527.932 380.901 513.096C384.087 505.986 393.238 480.63 401.235 456.749C409.946 430.739 416.377 413.041 417.276 412.609C418.101 412.212 424.626 410.002 431.776 407.698C438.926 405.394 448.151 401.813 452.276 399.739C461.804 394.95 462.691 394.842 461.946 398.567ZM177.776 429.032C153.894 439.514 148.106 443.179 149.539 446.911C149.887 447.819 148.597 448.174 144.899 448.187C140.358 448.204 136.634 449.752 112.132 461.811C82.759 476.267 80.311 478.001 82.214 483.006C83.452 486.261 87.259 487.319 91.545 485.599C93.322 484.886 106.515 478.587 120.862 471.602C146.652 459.046 152.165 455.429 150.828 451.944C150.423 450.89 151.077 450.729 153.738 451.228C156.713 451.786 159.329 450.76 173.388 443.52C190.881 434.513 196.764 430.15 195.613 427.038C193.918 422.454 192.367 422.628 177.776 429.032ZM326.747 513.61C321.124 520.422 314.601 525.707 308.912 528.063C304.487 529.895 304.455 530.604 308.32 541.169C309.695 544.929 310.704 550.528 311.023 556.169C311.738 568.833 314.095 571.067 318.61 563.361C321.837 557.856 328.587 551.639 335.694 547.628C338.764 545.896 341.492 544.128 341.757 543.7C342.022 543.271 341.046 540.052 339.588 536.545C337.485 531.485 336.818 527.898 336.357 519.169C335.825 509.104 335.603 508.144 333.747 507.878C332.302 507.671 330.287 509.321 326.747 513.61ZM593.276 520.456C591.144 521.185 590.309 522.744 590.291 526.026C590.28 528.225 591.926 530.583 597.445 536.276C605.018 544.086 608.354 545.448 611.705 542.098C614.867 538.935 613.63 535.804 606.526 528.994C599.2 521.97 595.611 519.658 593.276 520.456ZM326.607 535.161C327.449 537.689 327.22 538.303 324.669 540.344C323.078 541.617 321.529 542.661 321.227 542.664C320.125 542.674 317.988 535.265 318.996 534.929C319.544 534.746 320.844 533.953 321.884 533.167C324.396 531.268 325.459 531.717 326.607 535.161ZM375.44 551.419C373.788 553.482 370.094 557.419 367.232 560.169L362.027 565.169L362.649 561.007C362.992 558.718 364.156 554.781 365.238 552.257L367.205 547.669H372.824H378.444L375.44 551.419ZM440.267 561.179C437.538 564.468 424.419 572.285 418.276 574.283L411.776 576.396L411.099 586.783C410.726 592.495 409.714 599.138 408.849 601.545C405.685 610.347 407.387 612.456 413.569 607.396C419.658 602.411 427.136 598.046 432.085 596.587C434.455 595.889 436.757 594.609 437.2 593.743C437.643 592.877 438.251 588.765 438.55 584.604C438.908 579.619 440.133 574.362 442.142 569.189C443.818 564.872 444.958 560.963 444.674 560.504C443.86 559.187 441.638 559.527 440.267 561.179ZM428.276 584.047C428.276 586.657 426.96 588.061 423.526 589.114C421.528 589.726 421.276 589.456 421.276 586.704C421.276 584.424 421.871 583.365 423.526 582.7C427.194 581.226 428.276 581.533 428.276 584.047ZM501.276 618.613C501.276 619.133 500.165 620.82 498.808 622.363L496.339 625.169L496.308 621.992C496.286 619.79 496.813 618.675 498.026 618.358C500.923 617.601 501.276 617.629 501.276 618.613ZM195.471 639.419C181.698 657.524 163.276 684.112 163.276 685.884C163.276 690.56 166.376 692.719 170.705 691.058C173.152 690.119 204.188 645.517 206.883 639.066C208.665 634.802 207.353 631.669 203.786 631.669C201.941 631.669 199.964 633.512 195.471 639.419ZM550.026 637.749C547.208 639.39 547.985 643.345 552.427 649.974C570.208 676.512 580.763 690.753 583.081 691.335C586.466 692.184 588.715 690.573 589.073 687.041C589.396 683.852 588.052 681.751 567.641 653.537C555.338 636.531 554.069 635.394 550.026 637.749ZM491.633 689.246C490.032 691.691 490.051 692.065 491.999 696.496C496.336 706.357 510.401 735.973 519.39 754.169C527.99 771.577 529.011 773.196 531.586 773.491C535.164 773.901 537.276 772.151 537.276 768.776C537.276 767.319 533.634 758.487 529.183 749.148C524.731 739.81 516.605 722.725 511.123 711.182C505.642 699.639 500.439 689.402 499.562 688.432C497.229 685.854 493.612 686.226 491.633 689.246ZM212.939 701.419C208.496 708.473 207.107 711.86 207.697 714.21C208.402 717.019 211.456 718.178 214.235 716.691C216.285 715.594 219.923 709.388 221.27 704.688C223.344 697.458 217.002 694.969 212.939 701.419ZM470.833 705.941C469.013 708.719 469.799 711.572 477.231 729.169C482.061 740.607 485.313 744.777 488.037 743.028C491.121 741.048 490.04 734.305 484.132 718.669C478.787 704.52 478.578 704.162 475.527 703.86C473.132 703.624 472.032 704.111 470.833 705.941ZM248.043 716.338C266.561 730.275 294.809 743.152 319.276 748.81C334.111 752.241 365.695 752.408 381.276 749.137C383.636 748.642 383.653 748.667 381.576 749.59C371.325 754.145 339.155 755.579 321.776 752.256C294.674 747.074 271.477 737.021 247.216 719.944C242.189 716.406 239.276 713.679 239.276 712.512C239.276 711.498 239.554 710.669 239.894 710.669C240.233 710.669 243.901 713.22 248.043 716.338ZM455.636 719.174C454.672 721.684 455.793 726.619 460.064 738.669C462.306 744.994 466.007 756.449 468.289 764.125C473.518 781.713 474.5 783.669 478.102 783.669C481.448 783.669 483.276 782.04 483.276 779.057C483.276 776.639 470.172 738.107 465.8 727.669C464.302 724.094 462.377 720.382 461.521 719.419C459.613 717.272 456.417 717.139 455.636 719.174ZM230.541 734.868C228.848 736.936 215.276 766.676 215.276 768.317C215.276 773.275 221.252 775.605 224.515 771.919C225.367 770.956 228.847 763.358 232.247 755.033C239.279 737.822 239.679 734.355 234.691 733.868C232.994 733.702 231.126 734.152 230.541 734.868ZM295.941 765.919C294.089 767.622 292.496 771.83 289.385 783.233C285.017 799.248 284.563 802.556 286.476 804.469C288.499 806.492 293.081 805.904 294.658 803.419C296.249 800.913 304.276 772.046 304.276 768.83C304.276 766.992 300.95 763.669 299.109 763.669C298.712 763.669 297.287 764.682 295.941 765.919ZM402.476 765.869C400.874 767.471 400.964 773.172 402.814 787.368C405.228 805.885 405.976 807.669 411.335 807.669C412.377 807.669 413.918 806.619 414.759 805.335C416.129 803.244 416.131 802.075 414.772 794.085C412.046 778.048 410.03 768.2 409.11 766.419C408.073 764.413 404.25 764.095 402.476 765.869ZM342.875 774.56C341.854 775.688 340.379 780.8 339.22 787.229C336.13 804.361 336.652 807.669 342.441 807.669C346.305 807.669 347.188 805.487 349.426 790.407C351.181 778.583 351.213 777.222 349.791 775.051C347.912 772.183 345.2 771.991 342.875 774.56ZM481.285 791.651C480.488 793.141 480.746 795.69 482.32 801.901C484.968 812.352 486.421 814.669 490.324 814.669C495.099 814.669 495.715 811.384 492.649 802.265C488.808 790.841 484.082 786.427 481.285 791.651Z" fill="white"/>
</svg>
